<mxfile host="65bd71144e">
    <diagram id="llPs6rqvlwQHc56jxUKJ" name="Page-1">
        <mxGraphModel dx="1376" dy="1925" grid="1" gridSize="10" guides="1" tooltips="1" connect="1" arrows="1" fold="1" page="1" pageScale="1" pageWidth="827" pageHeight="1169" background="#FF0808" math="0" shadow="0">
            <root>
                <mxCell id="0"/>
                <mxCell id="1" parent="0"/>
                <mxCell id="135" value="" style="group" vertex="1" connectable="0" parent="1">
                    <mxGeometry x="540" y="-210" width="450" height="120" as="geometry"/>
                </mxCell>
                <mxCell id="101" value="Room" style="rounded=0;whiteSpace=wrap;html=1;" vertex="1" parent="135">
                    <mxGeometry width="450" height="60" as="geometry"/>
                </mxCell>
                <mxCell id="134" value="" style="group" vertex="1" connectable="0" parent="135">
                    <mxGeometry y="60" width="450" height="60" as="geometry"/>
                </mxCell>
                <mxCell id="131" value="id(auto)" style="rounded=0;whiteSpace=wrap;html=1;" vertex="1" parent="134">
                    <mxGeometry width="120" height="60" as="geometry"/>
                </mxCell>
                <mxCell id="120" value="" style="group" vertex="1" connectable="0" parent="134">
                    <mxGeometry x="120" width="330" height="60" as="geometry"/>
                </mxCell>
                <mxCell id="116" value="&lt;span&gt;r_author&lt;/span&gt;" style="rounded=0;whiteSpace=wrap;html=1;" vertex="1" parent="120">
                    <mxGeometry x="220" width="110" height="60" as="geometry"/>
                </mxCell>
                <mxCell id="119" value="" style="group" vertex="1" connectable="0" parent="120">
                    <mxGeometry width="220" height="60" as="geometry"/>
                </mxCell>
                <mxCell id="117" value="&lt;span&gt;r_name&lt;/span&gt;" style="rounded=0;whiteSpace=wrap;html=1;" vertex="1" parent="119">
                    <mxGeometry width="110" height="60" as="geometry"/>
                </mxCell>
                <mxCell id="118" value="&lt;span&gt;created_at&lt;/span&gt;" style="rounded=0;whiteSpace=wrap;html=1;" vertex="1" parent="119">
                    <mxGeometry x="110" width="110" height="60" as="geometry"/>
                </mxCell>
                <mxCell id="133" style="edgeStyle=none;html=1;" edge="1" parent="135" source="118" target="101">
                    <mxGeometry relative="1" as="geometry"/>
                </mxCell>
                <mxCell id="136" value="" style="group" vertex="1" connectable="0" parent="1">
                    <mxGeometry x="340" y="-610" width="700" height="120" as="geometry"/>
                </mxCell>
                <mxCell id="128" value="" style="group" vertex="1" connectable="0" parent="136">
                    <mxGeometry x="110" y="60" width="590" height="60" as="geometry"/>
                </mxCell>
                <mxCell id="122" value="&lt;span&gt;posted_room&lt;/span&gt;" style="rounded=0;whiteSpace=wrap;html=1;" vertex="1" parent="128">
                    <mxGeometry width="120" height="60" as="geometry"/>
                </mxCell>
                <mxCell id="124" value="&lt;span&gt;is_solved&lt;/span&gt;" style="rounded=0;whiteSpace=wrap;html=1;" vertex="1" parent="128">
                    <mxGeometry x="470" width="120" height="60" as="geometry"/>
                </mxCell>
                <mxCell id="125" value="&lt;span&gt;text&lt;/span&gt;" style="rounded=0;whiteSpace=wrap;html=1;" vertex="1" parent="128">
                    <mxGeometry x="350" width="120" height="60" as="geometry"/>
                </mxCell>
                <mxCell id="126" value="&lt;span&gt;posted_at&lt;/span&gt;" style="rounded=0;whiteSpace=wrap;html=1;" vertex="1" parent="128">
                    <mxGeometry x="120" width="120" height="60" as="geometry"/>
                </mxCell>
                <mxCell id="127" value="&lt;span&gt;owner&lt;/span&gt;" style="rounded=0;whiteSpace=wrap;html=1;" vertex="1" parent="128">
                    <mxGeometry x="240" width="120" height="60" as="geometry"/>
                </mxCell>
                <mxCell id="68" value="Post" style="rounded=0;whiteSpace=wrap;html=1;" vertex="1" parent="136">
                    <mxGeometry width="700" height="60" as="geometry"/>
                </mxCell>
                <mxCell id="132" value="&lt;span&gt;id(auto)&lt;/span&gt;" style="rounded=0;whiteSpace=wrap;html=1;" vertex="1" parent="136">
                    <mxGeometry y="60" width="120" height="60" as="geometry"/>
                </mxCell>
                <mxCell id="155" value="" style="group" vertex="1" connectable="0" parent="1">
                    <mxGeometry x="960" y="-380" width="1530" height="140" as="geometry"/>
                </mxCell>
                <mxCell id="153" value="" style="group" vertex="1" connectable="0" parent="155">
                    <mxGeometry x="120" width="1410" height="140" as="geometry"/>
                </mxCell>
                <mxCell id="139" value="date_joined" style="rounded=0;whiteSpace=wrap;html=1;" vertex="1" parent="153">
                    <mxGeometry x="1290" y="60" width="120" height="60" as="geometry"/>
                </mxCell>
                <mxCell id="141" value="last_login" style="rounded=0;whiteSpace=wrap;html=1;" vertex="1" parent="153">
                    <mxGeometry x="1180" y="60" width="120" height="60" as="geometry"/>
                </mxCell>
                <mxCell id="142" value="is_superuser" style="rounded=0;whiteSpace=wrap;html=1;" vertex="1" parent="153">
                    <mxGeometry x="1070" y="60" width="120" height="60" as="geometry"/>
                </mxCell>
                <mxCell id="143" value="is_active" style="rounded=0;whiteSpace=wrap;html=1;" vertex="1" parent="153">
                    <mxGeometry x="950" y="60" width="120" height="60" as="geometry"/>
                </mxCell>
                <mxCell id="144" value="is_staff" style="rounded=0;whiteSpace=wrap;html=1;" vertex="1" parent="153">
                    <mxGeometry x="840" y="60" width="120" height="60" as="geometry"/>
                </mxCell>
                <mxCell id="145" value="user_permissions" style="rounded=0;whiteSpace=wrap;html=1;" vertex="1" parent="153">
                    <mxGeometry x="720" y="60" width="120" height="60" as="geometry"/>
                </mxCell>
                <mxCell id="146" value="groups" style="rounded=0;whiteSpace=wrap;html=1;" vertex="1" parent="153">
                    <mxGeometry x="600" y="60" width="120" height="60" as="geometry"/>
                </mxCell>
                <mxCell id="147" value="password" style="rounded=0;whiteSpace=wrap;html=1;" vertex="1" parent="153">
                    <mxGeometry x="480" y="60" width="120" height="60" as="geometry"/>
                </mxCell>
                <mxCell id="148" value="email(optional)" style="rounded=0;whiteSpace=wrap;html=1;" vertex="1" parent="153">
                    <mxGeometry x="360" y="60" width="120" height="60" as="geometry"/>
                </mxCell>
                <mxCell id="149" value="last_name(optional)" style="rounded=0;whiteSpace=wrap;html=1;" vertex="1" parent="153">
                    <mxGeometry x="240" y="60" width="120" height="60" as="geometry"/>
                </mxCell>
                <mxCell id="150" value="first_name(optional)" style="rounded=0;whiteSpace=wrap;html=1;" vertex="1" parent="153">
                    <mxGeometry x="120" y="60" width="120" height="60" as="geometry"/>
                </mxCell>
                <mxCell id="151" value="username" style="rounded=0;whiteSpace=wrap;html=1;" vertex="1" parent="153">
                    <mxGeometry y="60" width="120" height="60" as="geometry"/>
                </mxCell>
                <mxCell id="154" value="id(auto)" style="rounded=0;whiteSpace=wrap;html=1;" vertex="1" parent="155">
                    <mxGeometry y="60" width="120" height="60" as="geometry"/>
                </mxCell>
                <mxCell id="138" value="User" style="rounded=0;whiteSpace=wrap;html=1;" vertex="1" parent="155">
                    <mxGeometry width="1530" height="60" as="geometry"/>
                </mxCell>
                <mxCell id="158" style="edgeStyle=none;html=1;exitX=1;exitY=0.5;exitDx=0;exitDy=0;entryX=0.5;entryY=1;entryDx=0;entryDy=0;" edge="1" parent="1" source="116" target="154">
                    <mxGeometry relative="1" as="geometry"/>
                </mxCell>
                <mxCell id="159" style="edgeStyle=none;html=1;exitX=0.5;exitY=1;exitDx=0;exitDy=0;entryX=0;entryY=0.5;entryDx=0;entryDy=0;" edge="1" parent="1" source="122" target="131">
                    <mxGeometry relative="1" as="geometry"/>
                </mxCell>
                <mxCell id="160" style="edgeStyle=none;html=1;exitX=0.5;exitY=1;exitDx=0;exitDy=0;entryX=0;entryY=0.5;entryDx=0;entryDy=0;" edge="1" parent="1" source="127" target="154">
                    <mxGeometry relative="1" as="geometry"/>
                </mxCell>
            </root>
        </mxGraphModel>
    </diagram>
</mxfile>